<svg width="383" height="43" viewBox="0 0 383 43" fill="none" xmlns="http://www.w3.org/2000/svg">
<path d="M15.58 0.36C17.18 0.279998 18.5 0.239998 19.54 0.239998C23.14 0.239998 26.44 0.479998 29.44 0.959999C30.96 1.12 32.42 1.36 33.82 1.68V10.26C32.14 10.1 30.88 9.96 30.04 9.84C29.36 9.8 28.26 9.7 26.74 9.54C25.22 9.46 24.22 9.42 23.74 9.42C21.3 9.42 19.5 9.48 18.34 9.6C17.22 9.68 16.3 9.92 15.58 10.32V0.36ZM19.54 42.48C15.54 42.48 12.34 42.18 9.94 41.58C7.58 40.98 5.74 39.92 4.42 38.4C3.1 36.88 2.16 34.78 1.6 32.1C1.08 29.42 0.82 25.84 0.82 21.36C0.82 17.56 1 14.44 1.36 12C1.72 9.56 2.34 7.56 3.22 6C4.14 4.4 5.38 3.18 6.94 2.34C8.5 1.5 10.54 0.919997 13.06 0.599997V21.36C13.06 24.2 13.14 26.38 13.3 27.9C13.46 29.38 13.76 30.52 14.2 31.32C14.68 32.16 15.36 32.74 16.24 33.06C17.16 33.38 18.46 33.54 20.14 33.54V42.48H19.54ZM22.66 26.16H18.4V17.46H34V40.98C32.12 41.42 29.78 41.76 26.98 42C25.62 42.2 24.18 42.32 22.66 42.36V26.16ZM50.8694 0.719999H51.8894L56.6294 17.16L49.7294 42H37.7294L50.8694 0.719999ZM64.3694 34.68H54.3494L56.8694 25.44H61.6694L54.5894 0.719999H65.5694L78.7094 42H66.4694L64.3694 34.68ZM82.7008 2.52V0.719999H93.7408L111.021 37.44L109.041 42H101.241L82.7008 2.52ZM116.601 24.66H116.361L112.341 34.38L107.181 23.34L116.601 0.719999H128.001V42H116.601V24.66ZM82.7008 8.46L93.7408 31.98V42H82.7008V8.46ZM135.787 0.719999H147.787V42H135.787V0.719999ZM150.307 0.719999H165.547V9.9H150.307V0.719999ZM150.307 16.56H162.727V25.74H150.307V16.56ZM150.307 32.82H165.547V42H150.307V32.82ZM188.345 2.52V0.719999H199.385L216.665 37.44L214.685 42H206.885L188.345 2.52ZM222.245 24.66H222.005L217.985 34.38L212.825 23.34L222.245 0.719999H233.645V42H222.245V24.66ZM188.345 8.46L199.385 31.98V42H188.345V8.46ZM250.791 0.719999H251.811L256.551 17.16L249.651 42H237.651L250.791 0.719999ZM264.291 34.68H254.271L256.791 25.44H261.591L254.511 0.719999H265.491L278.631 42H266.391L264.291 34.68ZM282.623 2.4V0.719999H294.623L317.783 40.26V42H305.843L282.623 2.4ZM306.383 15.78V0.719999H317.783V35.28L306.383 15.78ZM282.623 7.38L294.023 26.88V42H282.623V7.38ZM325.572 0.719999H337.572V42H325.572V0.719999ZM354.737 0.719999H355.757L360.497 17.16L353.597 42H341.597L354.737 0.719999ZM368.237 34.68H358.217L360.737 25.44H365.537L358.457 0.719999H369.437L382.577 42H370.337L368.237 34.68Z" fill="#00FFFF"/>
</svg>
