<svg width="282" height="31" viewBox="0 0 282 31" fill="none" xmlns="http://www.w3.org/2000/svg">
<path d="M11.5068 0.258746C12.6887 0.200506 13.6638 0.171387 14.432 0.171387C17.0913 0.171387 19.529 0.346103 21.7451 0.695535C22.8679 0.812013 23.9464 0.986729 24.9805 1.21968V7.46578C23.7395 7.3493 22.8088 7.24738 22.1883 7.16002C21.686 7.13091 20.8734 7.05811 19.7506 6.94163C18.6278 6.88339 17.8891 6.85427 17.5345 6.85427C15.7321 6.85427 14.4025 6.89795 13.5456 6.98531C12.7183 7.04355 12.0387 7.21826 11.5068 7.50946V0.258746ZM14.432 30.9214C11.4773 30.9214 9.11347 30.703 7.34061 30.2662C5.5973 29.8294 4.23811 29.0578 3.26304 27.9512C2.28797 26.8447 1.5936 25.3159 1.17994 23.3649C0.795819 21.4139 0.60376 18.8078 0.60376 15.5464C0.60376 12.7801 0.736724 10.5087 1.00265 8.73247C1.26858 6.95619 1.72657 5.50022 2.37662 4.36457C3.05621 3.1998 3.97219 2.31166 5.12454 1.70015C6.2769 1.08865 7.78383 0.666414 9.64532 0.43346V15.5464C9.64532 17.6139 9.70442 19.2009 9.82261 20.3074C9.9408 21.3848 10.1624 22.2147 10.4874 22.7971C10.842 23.4086 11.3443 23.8308 11.9944 24.0638C12.674 24.2967 13.6342 24.4132 14.8752 24.4132V30.9214H14.432ZM16.7367 19.0407H13.5899V12.7073H25.1135V29.8294C23.7248 30.1497 21.9962 30.3972 19.9279 30.572C18.9233 30.7176 17.8596 30.8049 16.7367 30.834V19.0407ZM37.5747 0.520819H38.3282L41.8296 12.4889L36.7326 30.572H27.8684L37.5747 0.520819ZM47.5471 25.2431H40.1454L42.0069 18.5166H45.5526L40.3227 0.520819H48.4335L58.1399 30.572H49.0983L47.5471 25.2431ZM61.0883 1.83119V0.520819H69.2434L82.0081 27.2524L80.5455 30.572H74.7837L61.0883 1.83119ZM86.13 17.9487H85.9527L82.9832 25.0247L79.1715 16.9878L86.13 0.520819H94.5511V30.572H86.13V17.9487ZM61.0883 6.15541L69.2434 23.2776V30.572H61.0883V6.15541ZM100.303 0.520819H109.167V30.572H100.303V0.520819ZM111.028 0.520819H122.286V7.2037H111.028V0.520819ZM111.028 12.0521H120.203V18.735H111.028V12.0521ZM111.028 23.8891H122.286V30.572H111.028V23.8891ZM139.127 1.83119V0.520819H147.282L160.046 27.2524L158.584 30.572H152.822L139.127 1.83119ZM164.168 17.9487H163.991L161.021 25.0247L157.21 16.9878L164.168 0.520819H172.589V30.572H164.168V17.9487ZM139.127 6.15541L147.282 23.2776V30.572H139.127V6.15541ZM185.255 0.520819H186.008L189.51 12.4889L184.413 30.572H175.548L185.255 0.520819ZM195.227 25.2431H187.825L189.687 18.5166H193.233L188.003 0.520819H196.114L205.82 30.572H196.778L195.227 25.2431ZM208.769 1.74383V0.520819H217.633L234.741 29.3053V30.572H225.921L208.769 1.74383ZM226.32 11.4842V0.520819H234.741V25.6799L226.32 11.4842ZM208.769 5.36919L217.19 19.5649V30.572H208.769V5.36919ZM240.495 0.520819H249.359V30.572H240.495V0.520819ZM262.039 0.520819H262.792L266.294 12.4889L261.197 30.572H252.332L262.039 0.520819ZM272.011 25.2431H264.609L266.471 18.5166H270.016L264.787 0.520819H272.897L282.604 30.572H273.562L272.011 25.2431Z" fill="white"/>
</svg>
